<?xml version="1.0" standalone="no"?>
<!DOCTYPE svg PUBLIC "-//W3C//DTD SVG 20010904//EN"
 "http://www.w3.org/TR/2001/REC-SVG-20010904/DTD/svg10.dtd">
<svg version="1.0" xmlns="http://www.w3.org/2000/svg"
 width="600.000000pt" height="600.000000pt" viewBox="0 0 600.000000 600.000000"
 preserveAspectRatio="xMidYMid meet">

<g transform="translate(0.000000,600.000000) scale(0.100000,-0.100000)"
fill="#000000" stroke="none">
<path d="M2820 5989 c-697 -51 -1302 -305 -1822 -764 -371 -329 -679 -798
-838 -1275 -83 -250 -129 -493 -152 -793 -26 -360 45 -834 181 -1200 383
-1029 1287 -1762 2376 -1928 168 -26 511 -36 698 -20 587 49 1152 276 1617
648 117 93 322 295 420 412 478 572 721 1275 697 2021 -13 415 -94 766 -264
1147 -179 398 -501 814 -848 1093 -225 180 -559 373 -815 469 -284 106 -529
159 -856 186 -195 16 -223 16 -394 4z m550 -354 c487 -74 945 -272 1306 -565
744 -604 1111 -1561 958 -2500 -70 -431 -250 -847 -521 -1203 -77 -101 -348
-383 -410 -425 l-32 -23 -111 160 c-61 88 -115 163 -121 167 -5 3 -49 -20 -97
-51 -114 -74 -350 -191 -481 -238 -551 -198 -1145 -201 -1696 -8 -114 40 -293
121 -380 172 -37 21 -70 39 -74 39 -3 0 -57 -79 -120 -175 l-114 -174 -41 30
c-119 87 -205 161 -314 272 -150 152 -233 251 -327 392 -231 346 -364 690
-430 1110 -22 139 -30 461 -16 615 57 627 328 1206 770 1648 444 443 1000 705
1638 772 125 13 487 4 613 -15z"/>
<path d="M2770 5314 c-19 -2 -73 -9 -120 -15 -189 -23 -445 -93 -625 -171
-333 -144 -678 -404 -725 -548 -20 -61 -6 -80 111 -146 119 -68 228 -143 317
-221 l63 -55 -42 -36 c-52 -45 -78 -101 -79 -169 0 -92 -20 -203 -46 -250 -13
-25 -24 -51 -24 -57 0 -7 -12 -19 -28 -28 -49 -29 -67 -55 -54 -81 6 -12 13
-33 16 -47 4 -16 24 -37 56 -58 28 -18 56 -45 61 -60 6 -15 12 -70 12 -123 l2
-97 -99 -198 c-54 -110 -107 -223 -117 -253 -44 -127 -8 -198 107 -216 28 -4
48 -13 54 -25 5 -10 10 -61 10 -112 0 -65 6 -112 20 -156 28 -88 26 -157 -5
-207 -14 -22 -25 -51 -25 -66 0 -58 101 -176 185 -215 43 -20 73 -24 214 -31
196 -10 177 5 252 -195 l52 -136 -22 -28 -22 -29 20 -17 c51 -40 320 -110 516
-133 351 -41 699 6 1037 141 103 40 257 117 331 163 56 36 60 58 22 139 -24
52 -32 92 -18 92 3 0 55 -16 115 -35 60 -20 129 -38 154 -42 l44 -6 0 84 c0
133 18 308 38 384 11 39 51 153 90 255 113 298 164 479 207 734 85 500 44 938
-120 1283 -102 216 -240 384 -435 529 -399 298 -824 450 -1290 459 -96 2 -191
1 -210 -1z m278 -191 c15 -20 17 -229 2 -267 -5 -14 -16 -26 -25 -26 -8 0 -15
-2 -15 -4 0 -6 50 -218 56 -239 5 -16 0 -18 -52 -15 l-58 3 -22 100 c-13 55
-23 125 -24 156 0 48 3 57 20 62 18 5 20 14 20 81 0 74 -1 76 -25 76 l-25 0
-2 -237 -3 -238 -52 -3 -53 -3 0 284 c0 156 3 287 8 291 4 5 59 5 122 2 90 -5
118 -10 128 -23z m-530 -290 c61 -137 114 -256 117 -265 5 -13 -2 -19 -32 -27
-57 -16 -63 -14 -79 24 -14 35 -35 44 -63 26 -10 -7 -12 -20 -7 -49 6 -41 6
-41 -31 -51 -71 -20 -65 -34 -96 232 -15 133 -31 261 -34 284 l-5 41 48 15
c27 8 54 15 60 16 6 1 61 -110 122 -246z m982 216 c104 -34 130 -51 130 -83 0
-12 -17 -70 -37 -130 -32 -93 -42 -111 -65 -120 -28 -11 -29 -14 -44 -189 -7
-86 -3 -83 -82 -51 -25 10 -32 18 -28 31 2 10 8 58 12 108 9 115 33 191 60
187 16 -2 24 10 43 69 12 39 21 72 19 74 -1 2 -12 5 -22 7 -17 3 -29 -25 -95
-217 -41 -121 -76 -222 -77 -224 -2 -1 -26 5 -54 14 -41 13 -50 20 -45 34 4 9
45 130 92 269 47 138 88 252 92 252 3 0 49 -14 101 -31z m-1487 -151 c8 -24
54 -141 101 -260 47 -120 86 -221 86 -226 0 -13 -92 -54 -100 -45 -15 16 -95
128 -107 148 -19 32 -16 17 22 -89 20 -54 34 -100 33 -101 -2 -1 -23 -12 -47
-25 -36 -18 -46 -19 -56 -8 -41 44 -315 449 -310 458 7 11 85 53 89 48 2 -2
31 -46 66 -98 34 -52 67 -99 72 -105 5 -5 -13 44 -41 110 l-50 120 36 22 36
22 37 -52 c19 -29 51 -75 70 -104 19 -28 36 -50 37 -49 1 1 -18 51 -42 110
-25 60 -45 111 -45 115 0 9 71 50 87 51 6 0 18 -19 26 -42z m1953 -73 l43 -25
-56 -88 c-49 -76 -251 -382 -258 -390 -5 -6 -85 48 -85 58 0 12 300 470 308
470 3 0 25 -11 48 -25z m361 -312 c75 -86 84 -101 71 -127 -14 -29 -353 -329
-385 -341 -24 -9 -31 -4 -99 70 -73 80 -86 107 -61 137 6 8 75 71 152 139 77
67 157 138 178 156 55 49 75 44 144 -34z m-1107 -111 c545 -145 927 -660 897
-1207 -16 -277 -128 -870 -170 -897 -7 -4 -23 -8 -36 -8 -28 0 -28 -6 18 197
54 234 91 550 91 774 0 240 -83 472 -223 622 -86 93 -87 52 -3 -131 98 -212
123 -334 113 -547 -11 -217 -85 -658 -154 -908 -20 -73 -41 -85 -151 -89 -130
-5 -136 14 -54 156 48 82 68 144 97 302 78 424 46 754 -95 973 -41 63 -68 85
-89 72 -10 -7 -8 -19 8 -57 36 -87 44 -137 44 -269 -1 -93 -6 -155 -21 -220
-25 -112 -54 -200 -66 -200 -5 0 -18 27 -30 60 -25 71 -61 100 -137 110 -28 4
-53 13 -56 21 -3 7 9 31 26 53 154 194 98 458 -90 426 -59 -10 -99 -48 -99
-95 0 -21 -6 -43 -13 -49 -17 -14 -33 4 -115 124 -104 153 -168 201 -382 284
-222 87 -467 148 -549 137 -88 -11 -94 27 -16 86 144 109 485 242 740 289 136
25 404 20 515 -9z m1451 -430 c33 -82 33 -83 14 -101 -18 -17 -221 -111 -241
-111 -4 0 -15 7 -24 15 -14 13 -27 6 -121 -65 l-104 -80 -21 48 c-12 26 -20
50 -17 54 12 21 170 132 216 153 48 21 54 21 63 7 9 -14 18 -13 77 13 37 16
67 32 67 35 0 4 -6 13 -12 22 -12 15 -35 7 -227 -78 -118 -51 -215 -93 -216
-91 -2 1 -12 24 -23 50 -20 44 -20 48 -4 54 9 4 127 55 262 114 l245 108 16
-32 c9 -18 31 -69 50 -115z m-2078 -351 c31 -10 82 -33 113 -52 58 -34 255
-220 266 -250 9 -23 -11 -39 -48 -39 -41 0 -87 40 -129 112 -25 42 -52 66
-153 135 -67 47 -122 91 -122 99 0 18 6 18 73 -5z m1760 -141 l49 0 -4 -52 -4
-53 -47 2 c-43 1 -47 -1 -47 -22 0 -19 7 -23 46 -29 l46 -6 66 71 c36 38 74
75 84 80 29 16 205 1 224 -19 13 -12 15 -35 12 -112 -4 -126 -8 -130 -109
-130 l-79 0 0 55 0 55 46 0 c41 0 45 2 42 23 -2 18 -10 23 -46 25 -41 3 -45 1
-110 -66 -37 -38 -76 -74 -88 -80 -13 -7 -54 -9 -113 -5 -111 7 -121 16 -120
108 1 98 11 138 39 152 14 7 34 11 45 8 11 -2 42 -5 68 -5z m-2592 -184 c6
-29 10 -84 8 -122 -4 -63 -10 -79 -64 -174 -55 -97 -60 -111 -67 -185 -3 -44
-10 -94 -13 -112 l-7 -31 58 -12 c33 -7 65 -17 72 -22 18 -15 15 -52 -7 -79
l-20 -24 -53 28 c-66 33 -81 34 -102 2 -20 -30 -49 -32 -76 -5 -34 34 -26 79
38 203 32 61 66 133 76 159 9 26 32 66 50 90 59 77 60 83 57 215 -1 68 1 127
4 133 12 20 34 -10 46 -64z m404 10 c50 -21 85 -60 85 -93 0 -61 -18 -65 -177
-43 -83 12 -96 11 -138 -4 -55 -21 -91 -15 -107 19 -19 42 26 91 110 121 50
18 184 18 227 0z m468 -174 c32 -35 30 -72 -8 -150 -52 -108 -40 -113 80 -31
86 59 112 69 179 69 30 0 60 6 72 15 10 8 27 15 37 15 26 0 21 -38 -17 -121
-78 -173 -74 -153 -80 -404 -9 -382 -15 -393 -286 -545 -68 -39 -105 -54 -135
-54 -38 -1 -40 1 -43 30 -2 19 8 59 24 95 51 121 55 148 64 474 9 304 10 312
40 420 17 60 30 123 30 140 -4 70 9 84 43 47z m-491 -62 c30 -23 93 -60 167
-96 47 -24 58 -25 86 -15 46 16 73 14 84 -8 8 -14 6 -25 -9 -44 -14 -18 -21
-47 -25 -103 -7 -88 -26 -118 -97 -155 -52 -27 -67 -24 -157 22 -86 43 -133
49 -139 16 -5 -25 27 -58 121 -123 42 -30 77 -59 77 -64 0 -31 33 -223 45
-267 13 -44 19 -52 45 -58 28 -6 30 -10 30 -50 0 -60 -38 -255 -55 -281 -8
-12 -35 -32 -62 -45 -41 -20 -67 -24 -190 -27 -93 -3 -158 0 -186 7 -84 24
-177 112 -177 169 0 14 17 40 44 66 35 34 46 52 51 89 11 69 1 97 -33 97 -51
0 -70 42 -29 61 28 13 121 -13 204 -56 59 -31 83 -28 83 10 0 43 -37 69 -145
99 -55 16 -107 32 -116 37 -30 15 -30 48 0 81 36 41 75 41 127 1 21 -16 53
-34 69 -39 23 -7 38 -24 61 -69 17 -33 38 -73 47 -90 23 -41 21 -86 -5 -140
-12 -24 -19 -47 -16 -51 13 -13 48 9 69 42 18 29 21 46 17 104 -3 64 -11 84
-91 243 -47 94 -98 208 -112 252 -24 71 -25 84 -14 122 13 49 58 93 93 93 56
0 136 23 141 41 12 38 -51 99 -102 99 -16 0 -23 6 -23 19 0 34 84 42 122 11z
m1111 4 c41 -21 95 -71 113 -106 18 -35 18 -168 0 -211 -7 -18 -39 -63 -70
-101 -36 -45 -62 -87 -71 -120 -27 -91 -88 -182 -143 -210 -38 -20 -65 -20
-101 -1 -66 34 -67 141 -1 299 23 54 39 104 37 110 -3 7 -1 63 3 124 7 88 14
121 32 155 39 70 128 98 201 61z m-1471 -179 c-2 -16 -3 -46 -3 -65 0 -19 1
-48 3 -65 4 -39 -26 -45 -66 -14 -36 29 -46 58 -36 105 11 46 43 76 79 72 22
-3 26 -7 23 -33z m1563 -314 c10 -45 4 -124 -11 -148 -8 -12 -14 -31 -14 -42
0 -10 -7 -21 -15 -25 -21 -8 -61 9 -69 29 -6 17 22 95 34 95 4 0 13 19 20 43
27 84 44 99 55 48z m964 -161 c83 -38 156 -70 161 -70 5 0 17 -11 25 -24 13
-20 14 -29 5 -47 -18 -32 -62 -22 -210 47 -155 72 -180 88 -180 119 0 21 21
44 41 45 3 0 74 -31 158 -70z m-1039 -105 c6 -8 9 -23 5 -35 -9 -27 -60 -28
-75 -1 -20 37 42 70 70 36z m-81 -86 c6 -18 11 -65 11 -106 0 -309 186 -549
470 -609 94 -20 208 -15 352 16 88 19 110 21 123 10 66 -55 -88 -101 -340
-103 -243 -2 -344 36 -490 181 -96 95 -155 183 -183 272 -22 72 -25 328 -3
353 22 27 48 21 60 -14z m779 13 c5 -17 -120 -74 -223 -102 -59 -16 -120 -23
-230 -27 -176 -6 -265 6 -265 38 0 17 5 18 48 11 26 -4 112 -7 192 -7 162 0
273 22 385 75 63 30 86 33 93 12z m-1006 -20 c9 -35 -17 -81 -89 -156 -49 -52
-77 -74 -87 -70 -9 3 -16 10 -16 15 0 4 29 41 64 81 36 41 68 87 72 103 9 41
12 45 33 45 10 0 21 -8 23 -18z m996 -89 c-4 -23 -131 -66 -253 -88 -88 -15
-343 -21 -404 -9 -19 4 -31 13 -31 23 0 14 22 16 198 16 206 0 280 10 402 54
71 25 92 26 88 4z m37 -83 c0 -22 -140 -75 -265 -100 -90 -19 -128 -21 -265
-17 -88 2 -168 8 -178 12 -24 10 -17 41 8 37 11 -1 79 -5 151 -9 184 -8 347
18 476 77 48 22 73 22 73 0z m-14 -156 c7 -77 23 -119 67 -180 41 -56 64 -103
57 -114 -3 -5 -32 -18 -63 -27 -43 -14 -88 -18 -187 -17 -216 2 -340 41 -443
138 -52 49 -122 151 -122 177 0 12 40 14 223 14 239 0 269 4 382 56 33 16 65
27 70 25 6 -1 13 -34 16 -72z m-1199 -126 c65 -25 77 -115 29 -228 -26 -60
-30 -83 -33 -184 -2 -76 -8 -120 -16 -128 -23 -23 -138 -15 -237 16 -117 36
-135 48 -135 89 0 117 132 359 226 418 62 38 102 42 166 17z m337 -54 c31 -25
147 -165 209 -252 29 -40 31 -47 19 -66 -18 -27 -77 -61 -152 -86 -68 -22
-262 -60 -312 -60 -54 0 -52 28 10 186 30 77 58 150 62 164 4 14 16 42 27 63
40 81 83 97 137 51z m456 -359 c0 -28 -7 -33 -133 -97 -143 -73 -203 -86 -237
-52 -26 26 -3 41 121 79 82 26 124 45 155 71 54 45 94 45 94 -1z"/>
<path d="M2400 4864 c0 -6 5 -37 10 -70 20 -112 20 -113 47 -96 10 6 5 28 -22
93 -19 46 -34 79 -35 73z"/>
<path d="M4102 4332 l-142 -126 20 -20 20 -20 32 30 c18 17 80 73 138 124 58
52 106 97 108 100 1 4 -5 14 -15 22 -17 15 -27 8 -161 -110z"/>
<path d="M2834 2692 c-23 -15 -38 -59 -44 -132 -6 -66 -13 -87 -64 -177 -61
-109 -78 -128 -100 -120 -12 5 -13 11 -3 36 13 35 0 58 -27 48 -12 -5 -16 -20
-16 -55 0 -37 -10 -67 -40 -128 -54 -105 -67 -149 -50 -169 16 -20 48 -12 127
31 91 50 143 113 171 210 13 43 28 122 33 174 11 132 17 159 42 208 16 32 19
46 11 59 -13 20 -25 25 -40 15z"/>
<path d="M3140 3019 c-61 -22 -80 -135 -37 -219 18 -38 27 -46 55 -48 27 -3
34 1 42 23 12 30 0 88 -24 120 -35 47 -5 96 35 59 42 -38 53 -72 39 -128 -15
-62 -11 -100 12 -104 26 -5 48 39 50 99 1 72 -44 186 -79 200 -30 11 -60 10
-93 -2z"/>
<path d="M3087 2693 c-20 -14 -47 -46 -59 -70 -20 -40 -21 -45 -6 -60 14 -14
21 -14 48 -3 50 21 90 67 90 104 0 29 -14 56 -30 56 -3 0 -22 -12 -43 -27z"/>
</g>
</svg>
