<?xml version="1.0" standalone="no"?>
<!DOCTYPE svg PUBLIC "-//W3C//DTD SVG 20010904//EN"
 "http://www.w3.org/TR/2001/REC-SVG-20010904/DTD/svg10.dtd">
<svg version="1.0" xmlns="http://www.w3.org/2000/svg"
 width="225.000000pt" height="225.000000pt" viewBox="0 0 225.000000 225.000000"
 preserveAspectRatio="xMidYMid meet">

<g transform="translate(0.000000,225.000000) scale(0.100000,-0.100000)"
fill="#FF0000" stroke="none">
<path d="M0 1125 l0 -1125 1125 0 1125 0 0 1125 0 1125 -1125 0 -1125 0 0
-1125z m1183 877 c20 -18 22 -42 3 -42 -8 0 -24 -9 -37 -19 -23 -19 -24 -19
-48 0 -13 10 -30 19 -37 19 -20 0 -17 24 4 42 33 30 81 30 115 0z m-89 -77
c14 -13 26 -30 26 -37 1 -7 7 -1 16 14 28 53 85 63 130 24 l28 -23 -37 -12
c-100 -33 -150 -187 -82 -251 35 -33 141 -42 162 -14 15 21 17 97 3 125 -15
27 -49 24 -60 -5 -11 -30 5 -96 24 -96 18 0 30 50 17 63 -8 8 -11 4 -11 -11 0
-12 -4 -22 -10 -22 -17 0 -12 60 6 67 33 12 47 -65 20 -103 -12 -15 -18 -17
-33 -8 -44 27 -53 105 -17 145 24 27 98 25 144 -2 51 -31 80 -60 80 -81 0 -23
-70 -100 -117 -129 -29 -18 -39 -20 -76 -11 -29 8 -65 8 -114 1 -47 -6 -92 -6
-133 0 -43 7 -78 7 -111 0 -43 -9 -53 -8 -83 10 -47 29 -116 107 -116 130 0
41 99 101 168 101 52 0 77 -28 77 -86 0 -89 -77 -115 -83 -28 -3 46 10 69 32
61 18 -7 23 -67 6 -67 -5 0 -10 10 -10 22 0 15 -3 19 -11 11 -13 -13 -1 -63
17 -63 32 0 32 112 0 119 -28 5 -46 -26 -46 -79 0 -71 14 -84 88 -78 71 5 108
31 118 83 14 75 -43 172 -113 196 l-37 12 28 23 c35 31 76 31 110 -1z m-58
-75 c56 -52 73 -149 32 -188 -13 -11 -36 -26 -52 -32 -27 -10 -28 -9 -21 12
44 140 -27 216 -150 159 -89 -40 -154 -129 -194 -266 -19 -66 -23 -89 -36
-222 -8 -79 12 -275 40 -391 64 -266 203 -486 359 -568 44 -23 55 -34 59 -59
3 -16 4 -31 2 -33 -7 -8 -149 74 -189 109 -139 123 -248 339 -303 599 -26 122
-25 423 1 535 38 165 126 299 229 350 44 21 63 25 124 23 60 -3 76 -7 99 -28z
m399 4 c101 -47 181 -164 227 -331 29 -108 32 -424 5 -553 -55 -260 -160 -470
-299 -595 -41 -37 -186 -121 -193 -113 -2 2 -1 17 2 33 4 25 15 36 60 60 156
81 304 319 362 582 24 105 44 305 37 367 -3 22 -8 70 -11 104 -17 177 -101
333 -207 386 -132 66 -210 -6 -163 -150 6 -19 4 -21 -19 -17 -37 8 -76 57 -76
98 0 62 38 126 85 145 43 18 135 11 190 -16z m-671 -204 c9 -17 42 -49 72 -72
44 -33 52 -43 40 -50 -31 -18 -87 -103 -102 -157 -9 -31 -20 -60 -24 -65 -4
-4 -33 -1 -64 8 -64 19 -63 15 -40 137 17 94 69 229 88 229 6 0 20 -14 30 -30z
m789 -30 c31 -70 53 -152 62 -231 l7 -57 -43 -16 c-24 -9 -32 -14 -17 -11 14
3 34 8 44 12 16 6 17 -2 11 -118 -9 -181 -46 -350 -107 -486 l-29 -62 -33 12
c-75 27 -75 28 -46 93 73 164 98 270 98 424 0 95 2 109 18 113 14 4 13 5 -4 6
-17 1 -23 11 -33 55 -13 58 -58 134 -97 165 l-24 19 38 28 c43 32 102 93 102
105 0 5 6 9 14 9 7 0 25 -27 39 -60z m-418 -232 c9 -37 75 -358 87 -420 7 -32
14 -58 18 -58 3 0 12 28 19 63 7 34 26 117 42 183 33 139 35 154 14 154 -8 0
-15 9 -15 20 0 18 7 20 60 20 53 0 60 -2 60 -20 0 -11 -6 -20 -14 -20 -18 0
-10 31 -97 -367 -71 -326 -88 -378 -103 -305 -3 15 -22 110 -41 212 -36 188
-53 249 -54 201 -1 -22 -27 -198 -54 -361 -23 -134 -33 -111 -120 265 -47 202
-84 344 -93 351 -8 6 -14 19 -14 28 0 13 12 16 70 16 56 0 70 -3 70 -15 0 -9
-7 -18 -16 -22 -18 -7 -16 -35 16 -168 10 -44 27 -115 37 -158 23 -102 18
-118 78 278 19 127 23 145 35 145 5 0 12 -10 15 -22z m-429 -89 l44 -11 0
-108 c0 -133 20 -235 72 -359 55 -134 54 -124 13 -144 -57 -27 -70 -23 -93 31
-65 151 -112 371 -112 524 0 79 2 89 16 84 9 -4 36 -11 60 -17z m209 -656 c16
-26 55 -75 87 -108 l57 -62 -24 -34 c-36 -47 -52 -54 -78 -32 -66 57 -177 200
-177 229 0 6 18 16 40 23 21 6 42 16 45 21 11 17 19 11 50 -37z m490 27 c22
-11 45 -20 52 -20 21 0 16 -18 -22 -80 -32 -52 -149 -180 -166 -180 -4 0 -23
18 -43 41 l-37 40 63 68 c35 37 74 86 88 109 14 23 25 42 25 42 1 0 18 -9 40
-20z m-305 -214 c21 -12 29 -12 54 1 23 12 31 13 34 3 2 -6 17 -27 33 -45 16
-18 29 -35 29 -38 0 -2 -13 -10 -29 -17 -25 -10 -34 -9 -53 4 -12 9 -32 16
-43 16 -11 0 -31 -7 -43 -16 -19 -13 -28 -14 -53 -4 -16 7 -29 15 -29 17 0 3
14 21 30 40 17 18 30 38 30 43 0 13 10 12 40 -4z m64 -112 c8 -21 -10 -89 -28
-104 -12 -9 -18 -7 -29 12 -40 63 -32 108 18 108 21 0 35 -6 39 -16z"/>
</g>
</svg>
