<?xml version="1.0" standalone="no"?>
<!DOCTYPE svg PUBLIC "-//W3C//DTD SVG 20010904//EN"
 "http://www.w3.org/TR/2001/REC-SVG-20010904/DTD/svg10.dtd">
<svg version="1.0" xmlns="http://www.w3.org/2000/svg"
 width="100.000000pt" height="100.000000pt" viewBox="0 0 100.000000 100.000000"
 preserveAspectRatio="xMidYMid meet">

<g transform="translate(0.000000,100.000000) scale(0.100000,-0.100000)"
fill="#000000" stroke="none">
<path d="M155 950 c-11 -4 -31 -20 -45 -35 l-25 -27 -3 -379 c-2 -326 -1 -383
13 -409 30 -59 40 -60 420 -60 338 0 345 0 345 20 0 20 -7 20 -344 20 -332 0
-344 1 -370 21 -35 28 -35 70 0 98 26 20 38 21 370 21 l344 0 0 370 0 370
-342 -1 c-189 0 -352 -4 -363 -9z m433 -102 c20 -20 15 -86 -8 -100 -16 -10
-20 -24 -20 -66 0 -50 3 -58 58 -125 88 -108 96 -131 68 -186 -23 -44 -53 -51
-226 -51 -173 0 -203 7 -226 51 -28 55 -20 78 68 186 55 67 58 75 58 125 0 42
-4 56 -20 66 -23 14 -28 80 -8 100 17 17 239 17 256 0z"/>
<path d="M360 800 c0 -19 7 -20 100 -20 93 0 100 1 100 20 0 19 -7 20 -100 20
-93 0 -100 -1 -100 -20z"/>
<path d="M398 678 c-2 -35 -8 -71 -12 -80 -7 -16 -1 -18 74 -18 75 0 81 2 74
18 -4 9 -10 45 -12 80 l-4 62 -58 0 -58 0 -4 -62z m78 -29 c10 -17 -13 -36
-27 -22 -12 12 -4 33 11 33 5 0 12 -5 16 -11z"/>
<path d="M300 489 c-45 -57 -49 -80 -20 -109 18 -18 33 -20 180 -20 147 0 162
2 180 20 29 29 25 52 -20 109 l-40 51 -120 0 -120 0 -40 -51z m270 -4 c26 -32
-13 -81 -47 -59 -23 14 -28 41 -13 59 16 19 44 19 60 0z m-155 -55 c0 -18 -6
-26 -23 -28 -13 -2 -25 3 -28 12 -10 26 4 48 28 44 17 -2 23 -10 23 -28z"/>
</g>
</svg>
