<?xml version="1.0" standalone="no"?>
<!DOCTYPE svg PUBLIC "-//W3C//DTD SVG 20010904//EN"
 "http://www.w3.org/TR/2001/REC-SVG-20010904/DTD/svg10.dtd">
<svg version="1.0" xmlns="http://www.w3.org/2000/svg"
 width="100.000000pt" height="100.000000pt" viewBox="0 0 100.000000 100.000000"
 preserveAspectRatio="xMidYMid meet">

<g transform="translate(0.000000,100.000000) scale(0.100000,-0.100000)"
fill="#000000" stroke="none">
<path d="M420 944 c-42 -18 -79 -51 -91 -81 -8 -22 -13 -23 -149 -23 -192 0
-181 14 -178 -228 l3 -187 198 -3 c129 -1 197 1 197 8 0 5 9 19 20 30 29 29
131 29 160 0 11 -11 20 -25 20 -30 0 -7 68 -9 198 -8 l197 3 3 187 c3 242 14
228 -178 228 -136 0 -141 1 -149 23 -30 78 -161 120 -251 81z m157 -43 c23
-11 46 -29 53 -40 11 -21 10 -21 -130 -21 -140 0 -141 0 -130 21 15 27 85 59
130 59 19 0 54 -9 77 -19z"/>
<path d="M444 426 c-3 -8 -4 -25 -2 -38 3 -21 8 -23 58 -23 l55 0 0 35 0 35
-53 3 c-39 2 -54 -1 -58 -12z"/>
<path d="M0 230 c0 -137 2 -152 20 -170 19 -19 33 -20 480 -20 447 0 461 1
480 20 18 18 20 33 20 170 l0 150 -200 0 c-127 0 -200 -4 -200 -10 0 -5 -9
-19 -20 -30 -29 -29 -131 -29 -160 0 -11 11 -20 25 -20 30 0 6 -73 10 -200 10
l-200 0 0 -150z"/>
</g>
</svg>
